<svg width="512" height="512" viewBox="0 0 512 512" fill="none" xmlns="http://www.w3.org/2000/svg">
<g clip-path="url(#clip0_84_15)">
<path d="M78.7692 137.486V512H52.5128C39.3846 512 27.1941 506.773 15.9414 496.318C5.3138 485.249 0 473.257 0 460.343V137.486H78.7692Z" fill="#0F3BFE"/>
<path d="M78.7692 77.4857V452H52.5128C39.3846 452 27.1941 446.773 15.9414 436.318C5.3138 425.249 0 413.257 0 400.343V77.4857H78.7692ZM78.7692 0H170.667L236.308 77.4857H78.7692V0ZM236.308 77.4857H315.077V452H236.308V77.4857ZM315.077 0H433.231L512 77.4857V452H485.744C472.615 452 460.425 446.773 449.172 436.318C438.545 425.249 433.231 413.257 433.231 400.343V77.4857H315.077V0Z" fill="#0F3BFE"/>
<path d="M236.309 137.486H315.078V512H236.309V137.486Z" fill="#0F3BFE"/>
<path d="M418 24L433.23 60L512 137.486V512H485.743C472.615 512 460.425 506.773 449.172 496.318C438.544 485.249 433.23 473.257 433.23 460.343V137.486L466.924 74L418 24Z" fill="#0F3BFE"/>
</g>
<defs>
<clipPath id="clip0_84_15">
<rect width="512" height="512" fill="white"/>
</clipPath>
</defs>
</svg>
